<?xml version="1.0" standalone="no"?>
<!DOCTYPE svg PUBLIC "-//W3C//DTD SVG 20010904//EN"
 "http://www.w3.org/TR/2001/REC-SVG-20010904/DTD/svg10.dtd">
<svg version="1.0" xmlns="http://www.w3.org/2000/svg"
 width="700.000000pt" height="700.000000pt" viewBox="0 0 700.000000 700.000000"
 preserveAspectRatio="xMidYMid meet">
<metadata>
Created by potrace 1.14, written by Peter Selinger 2001-2017
</metadata>
<g transform="translate(0.000000,700.000000) scale(0.100000,-0.100000)"
fill="#000000" stroke="none">
<path d="M924 6115 c-2 -5 -5 -30 -8 -55 -3 -25 -9 -76 -15 -115 -5 -38 -13
-92 -16 -120 -4 -27 -8 -61 -11 -75 -2 -14 -13 -95 -24 -180 -12 -85 -23 -166
-25 -180 -2 -14 -7 -45 -10 -70 -3 -25 -8 -56 -10 -70 -2 -14 -7 -50 -10 -80
-4 -30 -9 -62 -10 -70 -1 -8 -6 -40 -10 -70 -3 -30 -9 -68 -11 -85 -10 -62
-13 -81 -19 -135 -4 -30 -9 -62 -10 -71 -2 -9 -6 -40 -10 -70 -3 -30 -8 -65
-10 -79 -3 -14 -7 -43 -10 -65 -4 -35 -40 -299 -50 -365 -6 -43 -14 -103 -20
-150 -4 -25 -8 -56 -10 -70 -2 -14 -6 -45 -10 -70 -6 -46 -23 -174 -30 -220
-2 -14 -8 -59 -14 -100 -6 -41 -13 -95 -17 -120 -3 -25 -8 -56 -9 -70 -3 -27
-14 -110 -20 -150 -5 -33 -14 -96 -20 -145 -3 -22 -7 -51 -9 -65 -3 -14 -7
-45 -10 -70 -3 -25 -19 -142 -36 -260 -17 -118 -33 -233 -36 -255 -3 -22 -7
-51 -9 -65 -2 -14 -7 -50 -10 -80 -4 -30 -13 -95 -20 -145 -8 -49 -16 -112
-20 -140 -3 -27 -10 -79 -15 -115 -5 -36 -12 -85 -15 -110 -3 -25 -7 -56 -10
-70 -2 -14 -7 -45 -10 -70 -4 -25 -8 -56 -10 -70 -6 -40 -17 -123 -20 -150 -1
-14 -8 -63 -15 -110 -6 -47 -13 -100 -16 -117 -2 -18 -6 -49 -9 -68 -3 -19 -7
-52 -10 -72 -3 -21 -8 -47 -10 -58 -4 -19 5 -23 78 -40 100 -23 83 -20 137
-29 25 -5 52 -10 61 -11 135 -25 245 -34 445 -35 309 -2 648 61 939 174 460
180 863 485 1158 879 121 161 256 398 322 562 15 39 31 79 36 90 30 71 96 297
114 390 25 136 44 281 46 358 3 74 11 65 15 -15 3 -57 7 -98 19 -169 2 -13 6
-42 9 -64 15 -120 83 -379 126 -480 4 -11 18 -47 31 -80 25 -69 138 -297 176
-359 310 -498 707 -846 1233 -1079 217 -96 556 -179 825 -202 87 -7 334 -7
403 0 29 3 76 7 105 10 45 5 172 25 245 40 41 8 62 16 58 23 -2 4 -7 39 -10
77 -4 39 -9 84 -11 100 -5 33 -12 95 -20 170 -3 28 -7 66 -10 85 -7 50 -14
108 -19 160 -3 25 -8 65 -11 90 -3 25 -7 68 -11 95 -3 28 -7 66 -10 86 -2 20
-7 55 -9 79 -2 24 -7 59 -9 79 -3 20 -8 61 -11 91 -3 30 -7 71 -9 90 -3 19 -7
60 -11 90 -3 30 -8 66 -10 80 -2 14 -7 52 -10 85 -3 33 -7 76 -10 95 -2 19 -7
60 -10 90 -4 30 -8 66 -10 80 -2 14 -6 50 -10 80 -3 30 -10 91 -16 135 -5 44
-12 96 -14 115 -2 19 -7 60 -10 90 -5 50 -9 90 -20 175 -2 17 -7 57 -10 90 -3
33 -8 71 -10 85 -3 14 -7 52 -10 85 -3 33 -8 74 -10 90 -6 43 -18 150 -30 258
-3 26 -7 68 -10 95 -3 26 -7 54 -10 62 -2 8 -6 47 -9 85 -4 39 -8 81 -11 95
-2 14 -7 52 -10 85 -3 33 -8 74 -10 90 -2 17 -6 50 -9 75 -3 25 -10 86 -16
135 -6 50 -13 113 -15 140 -3 28 -8 66 -10 85 -3 19 -7 55 -10 80 -11 98 -16
146 -20 170 -2 14 -6 54 -10 90 -4 36 -8 76 -10 90 -2 14 -7 50 -10 80 -3 30
-8 66 -10 80 -2 14 -6 57 -10 95 -4 39 -8 77 -10 85 -1 8 -6 44 -10 80 -3 36
-8 76 -10 90 -1 14 -6 54 -10 90 -4 36 -8 72 -10 80 -2 8 -6 51 -11 95 -4 44
-9 83 -10 88 -1 4 -2 10 -3 15 -2 11 -5263 9 -5267 -3z"/>
</g>
</svg>
